<svg aria-hidden="true" style="position: absolute; width: 0; height: 0; overflow: hidden;" version="1.1" xmlns="http://www.w3.org/2000/svg" xmlns:xlink="http://www.w3.org/1999/xlink">
<defs>
<symbol id="icon-logo-desktop" viewBox="0 10 45 10">
<path fill="#231f20" style="fill: var(--website-secondary-color)" d="M11.195 16.653c0.026 0.062 0.077 0.103 0.152 0.125s0.194 0.033 0.356 0.033c0.009 0 0.013 0.013 0.013 0.040s-0.004 0.040-0.013 0.040c-0.136 0-0.244-0.002-0.323-0.007l-0.475-0.007-0.455 0.007c-0.084 0.004-0.196 0.007-0.337 0.007-0.013 0-0.020-0.013-0.020-0.040s0.007-0.040 0.020-0.040c0.163 0 0.282-0.011 0.356-0.033s0.126-0.065 0.155-0.129c0.029-0.064 0.043-0.162 0.043-0.294v-3.056c0-0.132-0.014-0.229-0.043-0.29s-0.080-0.104-0.155-0.129c-0.075-0.024-0.194-0.036-0.356-0.036-0.013 0-0.020-0.013-0.020-0.040s0.007-0.040 0.020-0.040l0.337 0.007c0.185 0.009 0.337 0.013 0.455 0.013 0.128 0 0.288-0.004 0.482-0.013l0.317-0.007c0.009 0 0.013 0.013 0.013 0.040s-0.004 0.040-0.013 0.040c-0.158 0-0.276 0.013-0.353 0.040s-0.129 0.072-0.155 0.135c-0.026 0.064-0.040 0.162-0.040 0.294v3.043c0 0.136 0.013 0.235 0.040 0.297z"></path>
<path fill="#231f20" style="fill: var(--website-secondary-color)" d="M16.831 12.805c0 0.026-0.007 0.040-0.020 0.040-0.18 0-0.314 0.054-0.399 0.162s-0.129 0.276-0.129 0.505v3.458c0 0.013-0.011 0.022-0.033 0.026s-0.037 0.002-0.046-0.007l-3.095-3.709v2.871c0 0.229 0.042 0.396 0.125 0.502s0.213 0.158 0.389 0.158c0.013 0 0.020 0.013 0.020 0.040s-0.007 0.040-0.020 0.040c-0.106 0-0.189-0.002-0.251-0.007l-0.337-0.007-0.35 0.007c-0.066 0.004-0.161 0.007-0.284 0.007-0.009 0-0.013-0.013-0.013-0.040s0.004-0.040 0.013-0.040c0.189 0 0.327-0.053 0.413-0.158s0.129-0.273 0.129-0.502v-3.043c-0.18-0.176-0.363-0.264-0.548-0.264-0.013 0-0.020-0.013-0.020-0.040s0.007-0.040 0.020-0.040l0.244 0.007c0.053 0.004 0.128 0.007 0.224 0.007l0.31-0.007c0.035-0.004 0.081-0.007 0.139-0.007 0.035 0 0.060 0.008 0.076 0.023s0.041 0.050 0.076 0.102c0.053 0.079 0.106 0.152 0.158 0.218l2.495 3.023v-2.62c0-0.229-0.040-0.397-0.119-0.505s-0.209-0.162-0.389-0.162c-0.009 0-0.013-0.013-0.013-0.040s0.004-0.040 0.013-0.040l0.257 0.007c0.141 0.009 0.253 0.013 0.337 0.013s0.196-0.004 0.337-0.013l0.271-0.007c0.013 0 0.020 0.013 0.020 0.040z"></path>
<path fill="#231f20" style="fill: var(--website-secondary-color)" d="M18.468 16.653c0.026 0.062 0.077 0.103 0.152 0.125s0.194 0.033 0.356 0.033c0.009 0 0.013 0.013 0.013 0.040s-0.004 0.040-0.013 0.040c-0.136 0-0.244-0.002-0.323-0.007l-0.475-0.007-0.455 0.007c-0.084 0.004-0.196 0.007-0.337 0.007-0.013 0-0.020-0.013-0.020-0.040s0.007-0.040 0.020-0.040c0.163 0 0.282-0.011 0.356-0.033s0.126-0.065 0.155-0.129c0.029-0.064 0.043-0.162 0.043-0.294v-3.056c0-0.132-0.014-0.229-0.043-0.29s-0.080-0.104-0.155-0.129c-0.075-0.024-0.194-0.036-0.356-0.036-0.013 0-0.020-0.013-0.020-0.040s0.007-0.040 0.020-0.040l0.337 0.007c0.185 0.009 0.337 0.013 0.455 0.013 0.128 0 0.288-0.004 0.482-0.013l0.317-0.007c0.009 0 0.013 0.013 0.013 0.040s-0.004 0.040-0.013 0.040c-0.158 0-0.276 0.013-0.353 0.040s-0.129 0.072-0.155 0.135c-0.026 0.064-0.040 0.162-0.040 0.294v3.043c0 0.136 0.013 0.235 0.040 0.297z"></path>
<path fill="#231f20" style="fill: var(--website-secondary-color)" d="M20.534 13.96c0.084 0.128 0.185 0.235 0.304 0.323s0.286 0.196 0.502 0.323c0.224 0.136 0.4 0.253 0.528 0.35s0.236 0.218 0.327 0.363c0.090 0.145 0.135 0.317 0.135 0.515 0 0.216-0.054 0.409-0.162 0.581s-0.265 0.307-0.472 0.406c-0.207 0.099-0.451 0.149-0.733 0.149-0.356 0-0.673-0.079-0.95-0.238-0.022-0.013-0.037-0.029-0.046-0.046s-0.015-0.044-0.020-0.079l-0.073-0.924c-0.004-0.018 0.006-0.029 0.030-0.033s0.038 0.002 0.043 0.020c0.088 0.326 0.227 0.604 0.416 0.835s0.44 0.347 0.752 0.347c0.216 0 0.396-0.057 0.541-0.172s0.218-0.301 0.218-0.561c0-0.198-0.044-0.368-0.132-0.511s-0.195-0.264-0.32-0.363-0.296-0.212-0.511-0.34c-0.216-0.136-0.383-0.25-0.502-0.34s-0.22-0.205-0.304-0.343c-0.084-0.139-0.125-0.303-0.125-0.492 0-0.224 0.059-0.415 0.178-0.571s0.275-0.273 0.469-0.35c0.194-0.077 0.398-0.115 0.614-0.115 0.273 0 0.535 0.051 0.785 0.152 0.066 0.031 0.099 0.070 0.099 0.119l0.040 0.792c0 0.018-0.012 0.029-0.036 0.033s-0.039-0.002-0.043-0.020c-0.044-0.233-0.143-0.453-0.297-0.66s-0.376-0.31-0.667-0.31c-0.233 0-0.41 0.068-0.531 0.205s-0.181 0.308-0.181 0.515c0 0.167 0.042 0.315 0.125 0.442z"></path>
<path fill="#231f20" style="fill: var(--website-secondary-color)" d="M23.933 13.96c0.084 0.128 0.185 0.235 0.304 0.323s0.286 0.196 0.502 0.323c0.224 0.136 0.4 0.253 0.528 0.35s0.236 0.218 0.327 0.363c0.090 0.145 0.135 0.317 0.135 0.515 0 0.216-0.054 0.409-0.162 0.581s-0.265 0.307-0.472 0.406c-0.207 0.099-0.451 0.149-0.733 0.149-0.356 0-0.673-0.079-0.95-0.238-0.022-0.013-0.037-0.029-0.046-0.046s-0.015-0.044-0.020-0.079l-0.073-0.924c-0.004-0.018 0.005-0.029 0.030-0.033s0.038 0.002 0.043 0.020c0.088 0.326 0.227 0.604 0.416 0.835s0.44 0.347 0.752 0.347c0.216 0 0.396-0.057 0.541-0.172s0.218-0.301 0.218-0.561c0-0.198-0.044-0.368-0.132-0.511s-0.195-0.264-0.32-0.363-0.296-0.212-0.511-0.34c-0.216-0.136-0.383-0.25-0.502-0.34s-0.22-0.205-0.303-0.343c-0.084-0.139-0.125-0.303-0.125-0.492 0-0.224 0.059-0.415 0.178-0.571s0.275-0.273 0.469-0.35c0.194-0.077 0.398-0.115 0.614-0.115 0.273 0 0.535 0.051 0.785 0.152 0.066 0.031 0.099 0.070 0.099 0.119l0.040 0.792c0 0.018-0.012 0.029-0.036 0.033s-0.039-0.002-0.043-0.020c-0.044-0.233-0.143-0.453-0.297-0.66s-0.376-0.31-0.667-0.31c-0.233 0-0.41 0.068-0.531 0.205s-0.181 0.308-0.181 0.515c0 0.167 0.042 0.315 0.125 0.442z"></path>
<path fill="#231f20" style="fill: var(--website-secondary-color)" d="M27.501 16.653c0.026 0.062 0.077 0.103 0.152 0.125s0.194 0.033 0.356 0.033c0.009 0 0.013 0.013 0.013 0.040s-0.004 0.040-0.013 0.040c-0.136 0-0.244-0.002-0.323-0.007l-0.475-0.007-0.455 0.007c-0.084 0.004-0.196 0.007-0.337 0.007-0.013 0-0.020-0.013-0.020-0.040s0.007-0.040 0.020-0.040c0.163 0 0.282-0.011 0.356-0.033s0.126-0.065 0.155-0.129c0.029-0.064 0.043-0.162 0.043-0.294v-3.056c0-0.132-0.014-0.229-0.043-0.29s-0.080-0.104-0.155-0.129c-0.075-0.024-0.194-0.036-0.356-0.036-0.013 0-0.020-0.013-0.020-0.040s0.007-0.040 0.020-0.040l0.337 0.007c0.185 0.009 0.337 0.013 0.455 0.013 0.128 0 0.288-0.004 0.482-0.013l0.317-0.007c0.009 0 0.013 0.013 0.013 0.040s-0.004 0.040-0.013 0.040c-0.158 0-0.276 0.013-0.353 0.040s-0.129 0.072-0.155 0.135c-0.026 0.064-0.040 0.162-0.040 0.294v3.043c0 0.136 0.013 0.235 0.040 0.297z"></path>
<path fill="#231f20" style="fill: var(--website-secondary-color)" d="M33.856 16.851c0 0.026-0.007 0.040-0.020 0.040-0.141 0-0.253-0.002-0.337-0.007l-0.455-0.007-0.442 0.007c-0.070 0.004-0.169 0.007-0.297 0.007-0.009 0-0.013-0.013-0.013-0.040s0.004-0.040 0.013-0.040c0.15 0 0.26-0.012 0.33-0.036s0.118-0.067 0.142-0.129c0.024-0.062 0.032-0.158 0.023-0.29l-0.125-2.937-1.478 3.425c-0.009 0.018-0.026 0.026-0.053 0.026-0.022 0-0.042-0.009-0.059-0.026l-1.63-3.412-0.053 2.719c-0.004 0.233 0.036 0.402 0.122 0.505s0.23 0.155 0.432 0.155c0.009 0 0.013 0.013 0.013 0.040s-0.004 0.040-0.013 0.040c-0.123 0-0.218-0.002-0.284-0.007l-0.356-0.007-0.356 0.007c-0.062 0.004-0.15 0.007-0.264 0.007-0.013 0-0.020-0.013-0.020-0.040s0.007-0.040 0.020-0.040c0.18 0 0.315-0.053 0.403-0.158s0.134-0.273 0.139-0.502l0.059-3.003c-0.132-0.202-0.317-0.304-0.554-0.304-0.013 0-0.020-0.013-0.020-0.040s0.007-0.040 0.020-0.040l0.257 0.007c0.048 0.004 0.112 0.007 0.191 0.007 0.088 0 0.162-0.002 0.221-0.007s0.107-0.007 0.142-0.007c0.057 0 0.103 0.020 0.139 0.059s0.090 0.134 0.165 0.284l1.472 3.036 1.399-3.214c0.048-0.11 0.114-0.165 0.198-0.165 0.022 0 0.055 0.002 0.099 0.007s0.101 0.007 0.172 0.007l0.33-0.007c0.048-0.004 0.123-0.007 0.224-0.007 0.009 0 0.013 0.013 0.013 0.040s-0.004 0.040-0.013 0.040c-0.22 0-0.377 0.034-0.472 0.102s-0.14 0.19-0.135 0.366l0.139 3.043c0.009 0.136 0.026 0.235 0.053 0.297s0.076 0.103 0.149 0.125c0.073 0.022 0.19 0.033 0.353 0.033 0.013 0 0.020 0.013 0.020 0.040z"></path>
<path fill="#231f20" style="fill: var(--website-secondary-color)" d="M37.346 16.607c0.231-0.145 0.414-0.357 0.548-0.637s0.201-0.613 0.201-1c0-0.409-0.074-0.774-0.221-1.096s-0.358-0.572-0.63-0.752c-0.273-0.18-0.59-0.271-0.95-0.271-0.471 0-0.838 0.155-1.102 0.465s-0.396 0.738-0.396 1.284c0 0.414 0.075 0.79 0.224 1.129s0.358 0.606 0.627 0.802c0.268 0.196 0.574 0.294 0.917 0.294 0.29 0 0.551-0.073 0.782-0.218zM35.24 16.683c-0.319-0.191-0.565-0.451-0.739-0.779s-0.261-0.685-0.261-1.072c0-0.453 0.114-0.841 0.343-1.165s0.522-0.566 0.881-0.729c0.358-0.163 0.725-0.244 1.099-0.244 0.418 0 0.785 0.098 1.102 0.294s0.56 0.454 0.729 0.776c0.169 0.321 0.254 0.662 0.254 1.023 0 0.4-0.106 0.768-0.317 1.102s-0.494 0.598-0.848 0.792c-0.354 0.194-0.738 0.29-1.152 0.29-0.409 0-0.773-0.096-1.092-0.287z"></path>
<path fill="#231f20" style="fill: var(--website-secondary-color)" d="M6.052 11.052c-0.297 0.013-0.598 0.019-0.894 0.019-0.121 0-0.27-0.006-0.443-0.019l-0.318-0.009c0 0.001-0.005 0.007-0.005 0.033 0 0.028 0.006 0.034 0.006 0.034h0.003c0.185 0 0.339 0.054 0.458 0.16 0.118 0.105 0.235 0.28 0.348 0.519l2.339 5.082c0.011 0.014 0.044 0.024 0.092 0.024 0.067 0 0.089-0.013 0.090-0.020l0.545-1.599c0.379-1.117 0.657-1.92 0.827-2.386 0.169-0.463 0.315-0.799 0.434-1 0.123-0.207 0.253-0.312 0.386-0.312 0.080 0 0.163 0.030 0.248 0.089 0.010 0.005 0.040 0.024 0.094 0.061 0.046 0.032 0.114 0.048 0.203 0.048 0.112 0 0.207-0.034 0.28-0.102s0.11-0.158 0.11-0.269c0-0.131-0.047-0.242-0.139-0.331s-0.24-0.134-0.44-0.134c-0.267 0-0.492 0.111-0.668 0.33-0.179 0.222-0.369 0.604-0.565 1.135-0.196 0.533-0.53 1.517-0.991 2.925l-0.206 0.628-1.941-4.148c-0.058-0.128-0.087-0.235-0.087-0.32 0-0.252 0.207-0.38 0.615-0.38 0-0 0.005-0.007 0.005-0.033 0-0.028-0.006-0.034-0.006-0.034-0.154 0-0.283 0.004-0.383 0.010z"></path>
<path fill="#231f20" style="fill: var(--website-secondary-color)" d="M40.89 12.64c0 0.011-0.002 0.016-0.005 0.016l-0.174-0.003-0.185 0.003c-0.002 0-0.003-0.005-0.003-0.016s0.001-0.016 0.003-0.016c0.055 0 0.091-0.006 0.107-0.019s0.022-0.039 0.019-0.078l-0.016-0.486-0.266 0.601c-0.002 0.005-0.007 0.008-0.016 0.008s-0.015-0.003-0.019-0.008l-0.293-0.566-0.013 0.413c-0.002 0.047 0.004 0.081 0.019 0.102s0.038 0.032 0.070 0.032c0.004 0 0.005 0.005 0.005 0.016s-0.002 0.016-0.005 0.016l-0.121-0.003-0.134 0.003c-0.002 0-0.003-0.005-0.003-0.016s0.001-0.016 0.003-0.016c0.039 0 0.068-0.011 0.087-0.032s0.029-0.055 0.031-0.102l0.016-0.491c-0.032-0.043-0.072-0.064-0.118-0.064-0.004 0-0.005-0.005-0.005-0.016s0.002-0.016 0.005-0.016c0.016 0 0.032 0.001 0.048 0.003s0.030 0.003 0.040 0.003c0.020 0 0.037-0.001 0.052-0.003s0.026-0.003 0.034-0.003c0.014 0 0.028 0.006 0.040 0.017s0.027 0.034 0.043 0.066l0.252 0.502 0.239-0.542c0.004-0.012 0.010-0.023 0.020-0.031s0.020-0.012 0.031-0.012c0.005 0 0.015 0.001 0.028 0.003s0.032 0.003 0.055 0.003c0.025 0 0.047-0.001 0.064-0.003s0.035-0.003 0.051-0.003c0.004 0 0.005 0.005 0.005 0.016s-0.002 0.016-0.005 0.016c-0.043 0-0.074 0.007-0.093 0.021s-0.027 0.044-0.026 0.089l0.016 0.483c0.002 0.039 0.009 0.065 0.023 0.078s0.043 0.019 0.087 0.019c0.004 0 0.005 0.005 0.005 0.016zM39.809 11.856c0.010 0 0.015 0.002 0.015 0.005-0.007 0.15-0.011 0.232-0.011 0.244 0 0.004-0.005 0.005-0.015 0.005s-0.015-0.002-0.015-0.005c0-0.063-0.011-0.107-0.034-0.133s-0.060-0.039-0.111-0.039c-0.039 0-0.065 0.007-0.078 0.020s-0.019 0.039-0.019 0.076v0.497c0 0.039 0.008 0.065 0.023 0.078s0.050 0.019 0.103 0.019c0.004 0 0.005 0.005 0.005 0.016s-0.002 0.016-0.005 0.016l-0.199-0.003-0.193 0.003c-0.002 0-0.003-0.005-0.003-0.016s0.001-0.016 0.003-0.016c0.052 0 0.086-0.006 0.102-0.019s0.024-0.039 0.024-0.078v-0.499c0-0.039-0.006-0.065-0.019-0.076s-0.038-0.017-0.078-0.017c-0.054 0-0.093 0.013-0.118 0.038s-0.041 0.070-0.048 0.134c0 0.004-0.005 0.005-0.016 0.005s-0.016-0.002-0.016-0.005c0.004-0.020 0.007-0.055 0.011-0.105s0.005-0.094 0.005-0.132c0-0.005 0.005-0.008 0.016-0.009s0.016 0.002 0.016 0.009c0 0.013 0.006 0.021 0.019 0.024s0.030 0.005 0.054 0.005l0.242 0.003 0.215-0.003c0.036 0 0.062-0.002 0.078-0.007s0.026-0.015 0.029-0.031c0.002-0.004 0.008-0.005 0.017-0.005z"></path>
<path fill="#231f20" style="fill: var(--website-secondary-color)" d="M10.461 19.177c0.206 0 0.269-0.092 0.269-0.275s-0.053-0.273-0.265-0.273h-0.216v0.547zM10.093 18.525h0.377c0.311 0 0.413 0.143 0.413 0.377 0 0.168-0.049 0.313-0.23 0.348l0.255 0.758h-0.152l-0.245-0.729h-0.261v0.729h-0.156z"></path>
<path fill="#231f20" style="fill: var(--website-secondary-color)" d="M11.431 18.525h0.603v0.108h-0.444v0.557h0.362v0.102h-0.362v0.611h0.449v0.104h-0.607z"></path>
<path fill="#231f20" style="fill: var(--website-secondary-color)" d="M12.478 19.623l0.138-0.037c0.023 0.183 0.076 0.326 0.28 0.326 0.148 0 0.235-0.064 0.235-0.214 0-0.132-0.078-0.214-0.204-0.32l-0.294-0.251c-0.107-0.090-0.152-0.183-0.152-0.298 0-0.205 0.15-0.319 0.377-0.319 0.241 0 0.377 0.102 0.399 0.375l-0.134 0.031c-0.016-0.187-0.074-0.297-0.265-0.297-0.138 0-0.235 0.062-0.235 0.196 0 0.081 0.031 0.143 0.117 0.216l0.294 0.247c0.13 0.11 0.243 0.242 0.243 0.41 0 0.221-0.158 0.337-0.383 0.337-0.272 0-0.397-0.161-0.416-0.403z"></path>
<path fill="#231f20" style="fill: var(--website-secondary-color)" d="M13.98 18.633h-0.315v-0.108h0.778v0.108h-0.307v1.375h-0.156z"></path>
<path fill="#231f20" style="fill: var(--website-secondary-color)" d="M15.385 19.51l-0.177-0.8-0.177 0.8zM15.123 18.525h0.165l0.354 1.483h-0.154l-0.082-0.397h-0.397l-0.084 0.397h-0.152z"></path>
<path fill="#231f20" style="fill: var(--website-secondary-color)" d="M16.112 19.603v-1.078h0.152v1.082c0 0.174 0.049 0.308 0.274 0.308 0.214 0 0.274-0.134 0.274-0.308v-1.082h0.15v1.078c0 0.247-0.095 0.423-0.424 0.423-0.341 0-0.426-0.176-0.426-0.423z"></path>
<path fill="#231f20" style="fill: var(--website-secondary-color)" d="M17.892 19.177c0.206 0 0.269-0.092 0.269-0.275s-0.053-0.273-0.265-0.273h-0.216v0.547zM17.523 18.525h0.377c0.311 0 0.413 0.143 0.413 0.377 0 0.168-0.049 0.313-0.23 0.348l0.255 0.758h-0.152l-0.245-0.729h-0.261v0.729h-0.156z"></path>
<path fill="#231f20" style="fill: var(--website-secondary-color)" d="M19.387 19.51l-0.177-0.8-0.177 0.8zM19.125 18.525h0.165l0.354 1.483h-0.154l-0.082-0.397h-0.397l-0.084 0.397h-0.152z"></path>
<path fill="#231f20" style="fill: var(--website-secondary-color)" d="M20.133 18.525h0.113l0.531 1.152v-1.152h0.136v1.483h-0.111l-0.533-1.164v1.164h-0.136z"></path>
<path fill="#231f20" style="fill: var(--website-secondary-color)" d="M21.696 18.633h-0.315v-0.108h0.778v0.108h-0.307v1.375h-0.156z"></path>
<path fill="#231f20" style="fill: var(--website-secondary-color)" d="M23.735 18.663c0-0.106-0.085-0.163-0.213-0.163-0.152 0-0.219 0.1-0.219 0.217 0 0.122 0.058 0.235 0.157 0.39 0.143-0.128 0.275-0.287 0.275-0.444zM23.773 19.775l-0.354-0.49c-0.139 0.137-0.19 0.255-0.19 0.377 0 0.117 0.063 0.245 0.253 0.245 0.116 0 0.206-0.048 0.291-0.131zM23.064 19.661c0-0.167 0.090-0.309 0.291-0.48-0.128-0.191-0.213-0.311-0.213-0.462 0-0.213 0.148-0.341 0.385-0.341 0.222 0 0.369 0.108 0.369 0.287 0 0.181-0.168 0.359-0.378 0.526l0.349 0.49c0.081-0.1 0.134-0.273 0.141-0.388h0.159c0 0.145-0.085 0.355-0.201 0.482 0.065 0.076 0.13 0.104 0.206 0.104v0.143c-0.016 0-0.029-0.002-0.043-0.002-0.107-0.008-0.192-0.076-0.262-0.149-0.083 0.086-0.215 0.157-0.385 0.157-0.275 0-0.419-0.165-0.419-0.367z"></path>
<path fill="#231f20" style="fill: var(--website-secondary-color)" d="M25.031 18.525h0.134l0.22 1.205 0.251-1.183h0.13l0.257 1.185 0.204-1.206h0.132l-0.269 1.483h-0.121l-0.265-1.223-0.261 1.223h-0.128z"></path>
<path fill="#231f20" style="fill: var(--website-secondary-color)" d="M26.868 18.525h0.156v1.483h-0.156z"></path>
<path fill="#231f20" style="fill: var(--website-secondary-color)" d="M27.608 18.525h0.113l0.531 1.152v-1.152h0.136v1.483h-0.111l-0.533-1.164v1.164h-0.136z"></path>
<path fill="#231f20" style="fill: var(--website-secondary-color)" d="M28.922 18.525h0.603v0.108h-0.444v0.557h0.362v0.102h-0.362v0.611h0.448v0.104h-0.607z"></path>
<path fill="#231f20" style="fill: var(--website-secondary-color)" d="M30.782 19.903c0.216 0 0.272-0.101 0.272-0.324 0-0.179-0.066-0.308-0.267-0.308h-0.228v0.632zM30.784 19.164c0.189 0 0.241-0.106 0.241-0.269 0-0.179-0.066-0.262-0.319-0.262h-0.148v0.531zM30.401 18.525h0.358c0.304 0 0.407 0.146 0.407 0.37 0 0.143-0.049 0.284-0.212 0.313 0.195 0.048 0.251 0.211 0.251 0.372 0 0.236-0.080 0.428-0.393 0.428h-0.411z"></path>
<path fill="#231f20" style="fill: var(--website-secondary-color)" d="M32.244 19.51l-0.177-0.8-0.177 0.8zM31.983 18.525h0.165l0.354 1.483h-0.154l-0.082-0.397h-0.397l-0.084 0.397h-0.152z"></path>
<path fill="#231f20" style="fill: var(--website-secondary-color)" d="M33.359 19.177c0.206 0 0.269-0.092 0.269-0.275s-0.053-0.273-0.265-0.273h-0.216v0.547zM32.991 18.525h0.377c0.311 0 0.413 0.143 0.413 0.377 0 0.168-0.049 0.313-0.23 0.348l0.255 0.758h-0.152l-0.245-0.729h-0.261v0.729h-0.156z"></path>
<path fill="#6d0f32" style="fill: var(--color2, #6d0f32)" d="M39.171 16.88c-0.062-0.059-0.093-0.141-0.093-0.246 0-0.095 0.031-0.171 0.093-0.228s0.142-0.085 0.242-0.085c0.104 0 0.185 0.027 0.242 0.082s0.086 0.132 0.086 0.231c0 0.104-0.029 0.186-0.086 0.246s-0.138 0.089-0.242 0.089c-0.1 0-0.18-0.030-0.242-0.089z"></path>
</symbol>
<symbol id="icon-google" viewBox="0 0 32 32">
<path stroke-linejoin="round" stroke-linecap="round" stroke-miterlimit="4" stroke-width="0.6707" d="M28.71 16.249c0-1.093-0.089-1.89-0.28-2.717h-12.476v4.931h7.323c-0.148 1.225-0.945 3.071-2.717 4.311l-0.025 0.165 3.945 3.056 0.273 0.027c2.51-2.318 3.957-5.728 3.957-9.774"></path>
<path stroke-linejoin="round" stroke-linecap="round" stroke-miterlimit="4" stroke-width="0.6707" d="M15.954 29.242c3.588 0 6.599-1.181 8.799-3.219l-4.193-3.248c-1.122 0.782-2.628 1.329-4.606 1.329-3.514 0-6.496-2.318-7.559-5.522l-0.156 0.013-4.102 3.174-0.054 0.149c2.185 4.341 6.673 7.323 11.87 7.323"></path>
<path stroke-linejoin="round" stroke-linecap="round" stroke-miterlimit="4" stroke-width="0.6707" d="M8.395 18.582c-0.28-0.827-0.443-1.713-0.443-2.628s0.162-1.801 0.428-2.628l-0.007-0.176-4.153-3.225-0.136 0.065c-0.901 1.801-1.417 3.824-1.417 5.965s0.517 4.163 1.417 5.965l4.311-3.337"></path>
<path stroke-linejoin="round" stroke-linecap="round" stroke-miterlimit="4" stroke-width="0.6707" d="M15.954 7.804c2.495 0 4.178 1.078 5.138 1.978l3.75-3.661c-2.303-2.141-5.3-3.455-8.888-3.455-5.197 0-9.685 2.982-11.87 7.323l4.296 3.337c1.078-3.204 4.060-5.522 7.574-5.522"></path>
<path d="M28.71 16.249c0-1.093-0.089-1.89-0.28-2.717h-12.476v4.931h7.323c-0.148 1.225-0.945 3.071-2.717 4.311l-0.025 0.165 3.945 3.056 0.273 0.027c2.51-2.318 3.957-5.728 3.957-9.774z"></path>
<path d="M15.954 29.242c3.588 0 6.599-1.181 8.799-3.219l-4.193-3.248c-1.122 0.782-2.628 1.329-4.606 1.329-3.514 0-6.496-2.318-7.559-5.522l-0.156 0.013-4.102 3.174-0.054 0.149c2.185 4.341 6.673 7.323 11.87 7.323z"></path>
<path d="M8.395 18.582c-0.28-0.827-0.443-1.713-0.443-2.628s0.162-1.801 0.428-2.628l-0.007-0.176-4.153-3.225-0.136 0.065c-0.901 1.801-1.417 3.824-1.417 5.965s0.517 4.163 1.417 5.965l4.311-3.337z"></path>
<path d="M15.954 7.804c2.495 0 4.178 1.078 5.138 1.978l3.75-3.661c-2.303-2.141-5.3-3.455-8.888-3.455-5.197 0-9.685 2.982-11.87 7.323l4.296 3.337c1.078-3.204 4.060-5.522 7.574-5.522z"></path>
</symbol>
<symbol id="icon-facebook" viewBox="0 0 32 32">
<path d="M16 1.92c-7.769 0-14.080 6.311-14.080 14.080 0 7.052 5.202 12.889 11.976 13.906l0.735 0.111v-11.095h-3.326v-2.253h3.326v-2.991c0-1.842 0.442-3.055 1.174-3.816s1.813-1.145 3.317-1.145c1.203 0 1.671 0.073 2.116 0.127v1.844h-1.566c-0.889 0-1.618 0.496-1.996 1.156s-0.496 1.449-0.496 2.252v2.571h3.919l-0.349 2.253h-3.57v11.114l0.726-0.099c6.871-0.932 12.174-6.815 12.174-13.936 0-7.769-6.311-14.080-14.080-14.080zM16 3.2c7.077 0 12.8 5.723 12.8 12.8 0 6.227-4.457 11.348-10.34 12.501v-8.3h3.387l0.744-4.813h-4.131v-1.291c0-0.664 0.122-1.259 0.326-1.616s0.402-0.512 0.886-0.512h2.846v-4.282l-0.555-0.075c-0.384-0.052-1.26-0.174-2.841-0.174-1.73 0-3.215 0.471-4.24 1.537s-1.531 2.654-1.531 4.704v1.711h-3.326v4.813h3.326v8.259c-5.788-1.226-10.151-6.302-10.151-12.461 0-7.077 5.723-12.8 12.8-12.8z"></path>
</symbol>
<symbol id="icon-instagram" viewBox="0 0 32 32">
<path d="M10.24 1.92c-4.587 0-8.32 3.733-8.32 8.32v11.52c0 4.587 3.733 8.32 8.32 8.32h11.52c4.587 0 8.32-3.733 8.32-8.32v-11.52c0-4.587-3.733-8.32-8.32-8.32zM10.24 3.2h11.52c3.895 0 7.040 3.145 7.040 7.040v11.52c0 3.895-3.145 7.040-7.040 7.040h-11.52c-3.895 0-7.040-3.145-7.040-7.040v-11.52c0-3.895 3.145-7.040 7.040-7.040zM23.68 7.040c-0.707 0-1.28 0.573-1.28 1.28s0.573 1.28 1.28 1.28c0.707 0 1.28-0.573 1.28-1.28s-0.573-1.28-1.28-1.28zM16 8.96c-3.88 0-7.040 3.159-7.040 7.040s3.159 7.040 7.040 7.040c3.881 0 7.040-3.16 7.040-7.040s-3.16-7.040-7.040-7.040zM16 10.24c3.189 0 5.76 2.571 5.76 5.76s-2.571 5.76-5.76 5.76c-3.189 0-5.76-2.571-5.76-5.76s2.571-5.76 5.76-5.76z"></path>
</symbol>
<symbol id="icon-trojmiasto" viewBox="0 0 83 32">
<path d="M32.933 17.536c-1.135 0-2.012 0.511-2.37 1.524h-0.041c-0.258-0.973-1.065-1.524-2.16-1.524-1.016 0-1.762 0.35-2.37 1.222h-0.040v-0.972h-2.3v9.495h2.41v-6.257c0-1.093 0.488-1.614 1.254-1.614 0.678 0 0.936 0.431 0.936 1.223v6.648h2.41v-6.257c0-1.093 0.488-1.614 1.254-1.614 0.677 0 0.946 0.431 0.946 1.223v6.648h2.389v-6.909c0-1.824-0.736-2.837-2.319-2.837zM16.117 17.536c-2.749 0-3.694 1.754-3.694 4.994 0 3.309 0.807 5.063 3.694 5.003 2.758 0 3.704-1.754 3.704-5.003-0.001-3.299-0.807-5.045-3.704-4.994zM16.117 25.869c-1.185 0-1.284-1.394-1.284-3.339s0.098-3.33 1.284-3.33c0.976 0 1.294 0.963 1.294 3.33s-0.319 3.339-1.294 3.339zM57.794 15.058h-2.399v2.728h-1.225v1.654h1.225v5.445c0 1.926 0.349 2.508 2.23 2.508 0.557 0 1.046-0.050 1.573-0.111v-1.694c-0.159 0.020-0.358 0.040-0.548 0.040-0.697 0-0.856-0.3-0.856-1.042v-5.145h1.404v-1.654h-1.404v-2.728zM20.288 16.614h2.399v-2.086h-2.399v2.086zM5.224 15.058h-2.41v2.728h-1.214v1.654h1.214v5.445c0 1.926 0.349 2.508 2.23 2.508 0.558 0 1.055-0.050 1.574-0.111v-1.694c-0.159 0.020-0.349 0.040-0.538 0.040-0.697 0-0.855-0.3-0.855-1.042v-5.145h1.394v-1.654h-1.394v-2.728zM12.562 17.576c-0.14-0.019-0.298-0.040-0.438-0.040-0.985 0-1.673 0.602-2.16 1.524h-0.030v-1.274h-2.3v9.495h2.399v-5.706c0-1.274 0.946-1.715 1.782-1.715 0.239 0 0.508 0.020 0.747 0.030v-2.315zM20.288 27.112c0 1.043-0.090 1.524-0.946 1.524-0.14 0-0.258 0-0.388-0.040v1.765c0.358 0.019 0.707 0.040 0.985 0.040 2.161 0 2.749-0.873 2.749-2.457v-10.158h-2.399v9.326zM46.264 20.444c0-1.705-0.538-2.908-3.394-2.908-1.813 0-3.296 0.742-3.296 2.928v0.23h2.161v-0.271c0-0.732 0.378-1.223 1.115-1.223 0.806 0 1.115 0.442 1.115 1.153 0 0.642-0.239 0.922-0.955 1.114l-1.364 0.371c-1.653 0.461-2.37 1.183-2.37 2.968 0 1.274 0.598 2.727 2.27 2.727 1.145 0 1.832-0.25 2.389-1.234h0.030c0.070 0.311 0.14 0.682 0.299 0.983h2.3c-0.25-0.542-0.299-0.952-0.299-1.834v-5.004zM43.964 24.404c0 1.044-0.836 1.465-1.483 1.465s-0.906-0.602-0.906-1.324c0-0.851 0.388-1.323 1.364-1.534 0.298-0.070 0.697-0.231 1.025-0.482v1.874zM63.13 17.536c-2.758 0-3.694 1.754-3.694 4.994 0 3.309 0.797 5.063 3.694 5.003 2.748 0 3.694-1.754 3.694-5.003 0-3.299-0.806-5.045-3.694-4.994zM63.13 25.869c-1.185 0-1.294-1.394-1.294-3.339s0.11-3.33 1.294-3.33c0.976 0 1.284 0.963 1.284 3.33s-0.308 3.339-1.284 3.339zM36.258 27.282h2.4v-9.496h-2.4v9.496zM51.979 21.827l-1.443-0.502c-0.807-0.26-1.046-0.651-1.046-1.113 0-0.662 0.518-1.014 1.125-1.014 0.786 0 1.066 0.472 1.066 1.424h2.161v-0.391c0-1.704-1.026-2.697-3.206-2.697-2.47 0-3.446 1.294-3.446 2.858 0 1.344 0.678 2.176 2.002 2.647l1.693 0.622c0.468 0.181 0.866 0.461 0.866 1.073 0 0.762-0.487 1.134-1.214 1.134-0.826 0-1.254-0.542-1.254-1.374v-0.32h-2.17v0.341c0 1.815 0.756 3.018 3.454 3.018 2.021 0 3.484-0.992 3.484-2.988 0.002-1.433-0.556-2.206-2.069-2.717zM36.258 16.614h2.4v-2.086h-2.4v2.086zM47.111 17.786c-2.609-9.065-8.642-10.228-13.074-9.285-3.086 0.651-6.342-6.738-11.917-6.899-2.44-0.070-5.327 1.083-8.832 5.184 6.074-3.81 10.654-2.768 13.332 0.742l4.818 6.307c6.352-3.169 10.444-4.262 15.672 3.95z"></path>
<path d="M75.825 17.536c-0.946 0-1.603 0.37-2.13 1.253h-0.030v-1.003h-2.299v12.615h2.399v-4.002h0.040c0.508 0.762 1.115 1.134 2.021 1.134 1.971 0 2.878-1.464 2.878-5.004 0-3.53-0.906-4.993-2.878-4.993zM75.038 25.657c-1.065 0-1.274-1.062-1.274-3.128s0.21-3.118 1.274-3.118c1.046 0 1.254 1.052 1.254 3.118s-0.21 3.128-1.254 3.128zM79.2 14.668v12.614h2.4v-12.614h-2.4z"></path>
<path d="M68.946 23.442c-1.106 0-2.002 0.902-2.002 2.006 0 1.114 0.896 2.016 2.002 2.016 1.095 0 1.99-0.902 1.99-2.016 0-1.103-0.895-2.006-1.99-2.006z"></path>
</symbol>
<symbol id="icon-TripAdvisor" viewBox="0 0 150 32">
<path d="M149.585 21.383c-0.467 0-0.846 0.379-0.846 0.846s0.379 0.846 0.846 0.846c0.467 0 0.846-0.379 0.846-0.846s-0.379-0.846-0.846-0.846zM149.585 22.94c-0.393 0-0.712-0.32-0.712-0.712 0-0.393 0.32-0.712 0.712-0.712 0.393 0 0.713 0.32 0.713 0.712s-0.32 0.712-0.713 0.712zM149.86 22.084c0-0.154-0.109-0.245-0.27-0.245h-0.27v0.771h0.132v-0.279h0.145l0.139 0.279h0.143l-0.154-0.307c0.082-0.038 0.134-0.113 0.134-0.218zM149.585 22.21h-0.131v-0.256h0.131c0.089 0 0.143 0.045 0.143 0.127-0 0.084-0.055 0.129-0.143 0.129zM47.698 12.825v-2.045h-3.136v12.167h3.136v-7.296c0-1.321 0.847-1.97 2.169-1.97h1.716v-2.901h-1.466c-1.148-0-2.145 0.599-2.419 2.045zM54.52 5.967c-1.073 0-1.895 0.847-1.895 1.92 0 1.048 0.822 1.895 1.895 1.895s1.895-0.847 1.895-1.895c-0-1.073-0.822-1.92-1.895-1.92zM52.956 22.947h3.129v-12.167h-3.129v12.167zM70.986 16.863c0 3.474-2.816 6.289-6.289 6.289-1.402 0-2.673-0.459-3.692-1.235v4.602h-3.128v-15.739h3.128v1.030c1.019-0.776 2.29-1.235 3.692-1.235 3.474 0 6.289 2.816 6.289 6.289zM67.838 16.863c0-1.886-1.53-3.416-3.416-3.416s-3.416 1.53-3.416 3.416c0 1.886 1.53 3.416 3.416 3.416s3.416-1.528 3.416-3.416zM125.361 15.796l-1.825-0.501c-1.201-0.313-1.668-0.681-1.668-1.316 0-0.619 0.658-1.051 1.598-1.051 0.896 0 1.598 0.586 1.598 1.337v0.070h2.884v-0.070c0-2.208-1.8-3.692-4.482-3.692-2.655 0-4.584 1.482-4.584 3.525 0 1.589 1.053 2.787 2.891 3.284l1.748 0.477c1.328 0.368 1.822 0.776 1.822 1.507 0 0.771-0.713 1.289-1.775 1.289-1.107 0-1.852-0.701-1.852-1.741v-0.070h-3.061v0.070c0 2.496 2.009 4.24 4.888 4.24 2.773 0 4.786-1.704 4.786-4.049-0-1.151-0.515-2.657-2.968-3.311zM82.085 10.78h3.128v12.167h-3.128v-1.030c-1.019 0.776-2.29 1.235-3.692 1.235-3.473 0-6.289-2.816-6.289-6.289s2.816-6.289 6.289-6.289c1.402 0 2.673 0.459 3.692 1.235v-1.030zM82.085 16.863v0c0-1.888-1.53-3.416-3.416-3.416s-3.416 1.53-3.416 3.416c0 1.886 1.53 3.416 3.416 3.416 1.888 0 3.416-1.528 3.416-3.416zM96.51 6.45h3.129v16.499h-3.129v-1.030c-1.019 0.776-2.29 1.235-3.692 1.235-3.474 0-6.289-2.816-6.289-6.289s2.816-6.289 6.289-6.289c1.402 0 2.673 0.459 3.692 1.235v-5.361zM96.51 16.863c0-1.886-1.53-3.416-3.416-3.416s-3.416 1.53-3.416 3.416c0 1.886 1.528 3.416 3.416 3.416 1.886 0 3.416-1.528 3.416-3.416zM114.163 22.947h3.128v-12.167h-3.128v12.167zM115.727 5.967c-1.073 0-1.895 0.847-1.895 1.92 0 1.048 0.822 1.895 1.895 1.895s1.895-0.847 1.895-1.895c0-1.073-0.822-1.92-1.895-1.92zM141.851 16.863c0 3.474-2.816 6.289-6.289 6.289s-6.289-2.816-6.289-6.289 2.816-6.289 6.289-6.289c3.474 0 6.289 2.816 6.289 6.289zM138.978 16.863c0-1.886-1.53-3.416-3.416-3.416s-3.416 1.53-3.416 3.416c0 1.886 1.528 3.416 3.416 3.416 1.886 0 3.416-1.528 3.416-3.416zM46.096 6.45h-12.001v2.791h4.443v13.706h3.118v-13.706h4.443v-2.791h-0.002zM106.787 19.615l-2.783-8.835h-3.286l4.174 12.167h3.765l4.199-12.167h-3.286l-2.783 8.835zM146.435 12.825v-2.045h-3.136v12.167h3.136v-7.296c0-1.321 0.847-1.97 2.168-1.97h1.716v-2.901h-1.466c-1.148-0-2.143 0.599-2.419 2.045z"></path>
<path d="M32 16c0 8.837-7.163 16-16 16s-16-7.163-16-16c0-8.837 7.163-16 16-16s16 7.163 16 16z"></path>
<path d="M25.882 12.879l1.931-2.101h-4.282c-2.143-1.464-4.732-2.317-7.532-2.317-2.796 0-5.377 0.855-7.517 2.317h-4.292l1.931 2.101c-1.183 1.080-1.925 2.635-1.925 4.362 0 3.259 2.642 5.901 5.901 5.901 1.548 0 2.959-0.597 4.012-1.573l1.891 2.059 1.891-2.058c1.053 0.976 2.462 1.571 4.010 1.571 3.259 0 5.905-2.642 5.905-5.901 0.002-1.729-0.74-3.284-1.924-4.362zM10.099 21.234c-2.206 0-3.994-1.788-3.994-3.994s1.788-3.994 3.994-3.994c2.206 0 3.994 1.788 3.994 3.994s-1.788 3.994-3.994 3.994zM16.002 17.124c0-2.628-1.911-4.884-4.434-5.848 1.364-0.57 2.86-0.887 4.432-0.887s3.069 0.316 4.434 0.887c-2.521 0.965-4.432 3.22-4.432 5.848zM21.903 21.234c-2.206 0-3.994-1.788-3.994-3.994s1.788-3.994 3.994-3.994 3.994 1.788 3.994 3.994-1.788 3.994-3.994 3.994zM21.903 15.145c-1.157 0-2.093 0.937-2.093 2.093s0.937 2.093 2.093 2.093c1.157 0 2.093-0.937 2.093-2.093-0-1.155-0.937-2.093-2.093-2.093zM12.192 17.241c0 1.157-0.937 2.093-2.093 2.093s-2.093-0.937-2.093-2.093c0-1.157 0.937-2.093 2.093-2.093 1.157-0.002 2.093 0.937 2.093 2.093z"></path>
</symbol>
<symbol id="icon-logo-mobile" viewBox="0 0 34 32">
<path d="M8.674 0.597c-1.553 0.066-3.124 0.1-4.671 0.1-0.631 0-1.41-0.034-2.316-0.1l-1.663-0.049c0.002 0.003-0.024 0.039-0.024 0.176 0 0.148 0.030 0.179 0.031 0.179h0.013c0.965 0 1.772 0.287 2.395 0.849 0.615 0.556 1.227 1.482 1.821 2.751l12.224 26.924c0.060 0.076 0.23 0.128 0.48 0.128 0.352 0 0.463-0.070 0.472-0.107l2.85-8.47c1.979-5.92 3.432-10.174 4.321-12.642 0.882-2.45 1.645-4.232 2.268-5.295 0.641-1.096 1.32-1.652 2.018-1.652 0.416 0 0.852 0.158 1.296 0.47 0.054 0.026 0.21 0.128 0.491 0.323 0.24 0.168 0.596 0.253 1.061 0.253 0.588 0 1.081-0.182 1.465-0.541 0.381-0.355 0.575-0.835 0.575-1.427 0-0.692-0.244-1.282-0.724-1.754-0.483-0.473-1.255-0.712-2.297-0.712-1.395 0-2.569 0.588-3.49 1.746-0.936 1.178-1.929 3.2-2.95 6.012-1.026 2.824-2.769 8.038-5.178 15.497l-1.077 3.329-10.143-21.977c-0.301-0.678-0.453-1.247-0.453-1.694 0-1.336 1.081-2.013 3.213-2.013 0.001-0.002 0.027-0.038 0.027-0.177 0-0.148-0.030-0.179-0.030-0.179-0.803 0.002-1.478 0.019-2.002 0.052z"></path>
<path d="M31.825 31.424c-0.18-0.175-0.27-0.416-0.27-0.723 0-0.28 0.090-0.503 0.27-0.671s0.415-0.252 0.706-0.252c0.304 0 0.54 0.080 0.706 0.241s0.249 0.388 0.249 0.681c0 0.307-0.083 0.549-0.249 0.723s-0.402 0.262-0.706 0.262c-0.29 0-0.526-0.088-0.706-0.262z"></path>
</symbol>
</defs>
</svg>
